# xmcd
#
# Track frame offsets:
#	150
#	13906
#	26702
#	37316
#	47614
#	58259
#	68841
#	87089
#	98641
#	110493
#	122972
#	133229
#	145098
#	155637
#	166203
#	180045
#	193597
#	204532
#	215104
#	224981
#
# Disc length: 3132 seconds
#
# Revision: 0
# Processed by: cddbd v1.5.2PL0 Copyright (c) Steve Scherf et al.
# Submitted via: audiograbber 1.83.01
#
DISCID=360c3a14
DTITLE=David Houston - The Best Of
DYEAR=1977
DGENRE=Country
TTITLE0=Almost Persuaded
TTITLE1=My Elusive Dreams
TTITLE2=Baby Baby (I Know You're A Lady)
TTITLE3=Livin' In A House Full Of Love
TTITLE4=Sweet, Sweet Judy
TTITLE5=A Woman Always Knows
TTITLE6=Nashville
TTITLE7=I'm Down To My Last I Love You
TTITLE8=Already It's Heaven
TTITLE9=Mountain Of Love
TTITLE10=With One Exception
TTITLE11=A Loser's Cathedral
TTITLE12=Have A Little Faith
TTITLE13=Too Far Gone
TTITLE14=Where Love Used To Live
TTITLE15=My Woman's Good To Me
TTITLE16=I Do My Swinging At Home
TTITLE17=Wonders Of The Wine
TTITLE18=You Mean The World To Me
TTITLE19=After Closing Time
EXTD=
EXTT0=
EXTT1=
EXTT2=
EXTT3=
EXTT4=
EXTT5=
EXTT6=
EXTT7=
EXTT8=
EXTT9=
EXTT10=
EXTT11=
EXTT12=
EXTT13=
EXTT14=
EXTT15=
EXTT16=
EXTT17=
EXTT18=
EXTT19=
PLAYORDER=
